<mxfile host="app.diagrams.net" modified="2021-06-13T20:33:32.599Z" agent="5.0 (Windows NT 10.0; Win64; x64) AppleWebKit/537.36 (KHTML, like Gecko) Chrome/91.0.4472.77 Safari/537.36" etag="c3RfsQXsFEcAyue_xCEe" version="14.7.7" type="github">
  <diagram id="R2lEEEUBdFMjLlhIrx00" name="Page-1">
    <mxGraphModel dx="2523" dy="896" grid="1" gridSize="10" guides="1" tooltips="1" connect="1" arrows="1" fold="1" page="1" pageScale="1" pageWidth="850" pageHeight="1100" math="0" shadow="0" extFonts="Permanent Marker^https://fonts.googleapis.com/css?family=Permanent+Marker">
      <root>
        <mxCell id="0" />
        <mxCell id="1" parent="0" />
        <mxCell id="KyeC4GDaf3oGziCK4GGg-54" style="edgeStyle=orthogonalEdgeStyle;rounded=0;orthogonalLoop=1;jettySize=auto;html=1;entryX=1;entryY=0.5;entryDx=0;entryDy=0;exitX=0;exitY=0.5;exitDx=0;exitDy=0;" parent="1" source="KyeC4GDaf3oGziCK4GGg-94" target="KyeC4GDaf3oGziCK4GGg-53" edge="1">
          <mxGeometry relative="1" as="geometry">
            <mxPoint x="720.0000510204341" y="200.02857142857135" as="sourcePoint" />
            <mxPoint x="720" y="260" as="targetPoint" />
          </mxGeometry>
        </mxCell>
        <mxCell id="KyeC4GDaf3oGziCK4GGg-53" value="Medico" style="whiteSpace=wrap;html=1;align=center;" parent="1" vertex="1">
          <mxGeometry x="560" y="240" width="100" height="40" as="geometry" />
        </mxCell>
        <mxCell id="KyeC4GDaf3oGziCK4GGg-58" style="edgeStyle=orthogonalEdgeStyle;rounded=0;orthogonalLoop=1;jettySize=auto;html=1;entryX=1;entryY=0.5;entryDx=0;entryDy=0;" parent="1" source="KyeC4GDaf3oGziCK4GGg-55" target="KyeC4GDaf3oGziCK4GGg-53" edge="1">
          <mxGeometry relative="1" as="geometry" />
        </mxCell>
        <mxCell id="KyeC4GDaf3oGziCK4GGg-55" value="nome" style="ellipse;whiteSpace=wrap;html=1;align=center;" parent="1" vertex="1">
          <mxGeometry x="720" y="240" width="100" height="40" as="geometry" />
        </mxCell>
        <mxCell id="KyeC4GDaf3oGziCK4GGg-57" style="edgeStyle=orthogonalEdgeStyle;rounded=0;orthogonalLoop=1;jettySize=auto;html=1;entryX=1;entryY=0.5;entryDx=0;entryDy=0;" parent="1" source="KyeC4GDaf3oGziCK4GGg-56" target="KyeC4GDaf3oGziCK4GGg-53" edge="1">
          <mxGeometry relative="1" as="geometry" />
        </mxCell>
        <mxCell id="KyeC4GDaf3oGziCK4GGg-56" value="salario" style="ellipse;whiteSpace=wrap;html=1;align=center;" parent="1" vertex="1">
          <mxGeometry x="720" y="310" width="100" height="40" as="geometry" />
        </mxCell>
        <mxCell id="KyeC4GDaf3oGziCK4GGg-61" value="Especialidade" style="whiteSpace=wrap;html=1;align=center;" parent="1" vertex="1">
          <mxGeometry x="350" y="110" width="100" height="40" as="geometry" />
        </mxCell>
        <mxCell id="KyeC4GDaf3oGziCK4GGg-62" style="edgeStyle=orthogonalEdgeStyle;rounded=0;orthogonalLoop=1;jettySize=auto;html=1;exitX=0;exitY=0.5;exitDx=0;exitDy=0;" parent="1" source="KyeC4GDaf3oGziCK4GGg-90" edge="1">
          <mxGeometry relative="1" as="geometry">
            <mxPoint x="520" y="170" as="sourcePoint" />
            <mxPoint x="400" y="110" as="targetPoint" />
          </mxGeometry>
        </mxCell>
        <mxCell id="KyeC4GDaf3oGziCK4GGg-66" style="edgeStyle=orthogonalEdgeStyle;rounded=0;orthogonalLoop=1;jettySize=auto;html=1;entryX=0.5;entryY=1;entryDx=0;entryDy=0;exitX=1;exitY=0.5;exitDx=0;exitDy=0;" parent="1" source="KyeC4GDaf3oGziCK4GGg-87" target="KyeC4GDaf3oGziCK4GGg-68" edge="1">
          <mxGeometry relative="1" as="geometry">
            <mxPoint x="840" y="780" as="targetPoint" />
            <mxPoint x="840.0000510204341" y="720.0285714285714" as="sourcePoint" />
          </mxGeometry>
        </mxCell>
        <mxCell id="KyeC4GDaf3oGziCK4GGg-68" value="Paciente" style="whiteSpace=wrap;html=1;align=center;" parent="1" vertex="1">
          <mxGeometry x="345" y="680" width="100" height="40" as="geometry" />
        </mxCell>
        <mxCell id="KyeC4GDaf3oGziCK4GGg-69" style="edgeStyle=orthogonalEdgeStyle;rounded=0;orthogonalLoop=1;jettySize=auto;html=1;entryX=0;entryY=0.5;entryDx=0;entryDy=0;" parent="1" source="KyeC4GDaf3oGziCK4GGg-70" target="KyeC4GDaf3oGziCK4GGg-68" edge="1">
          <mxGeometry relative="1" as="geometry" />
        </mxCell>
        <mxCell id="KyeC4GDaf3oGziCK4GGg-70" value="nome" style="ellipse;whiteSpace=wrap;html=1;align=center;" parent="1" vertex="1">
          <mxGeometry x="150" y="680" width="100" height="40" as="geometry" />
        </mxCell>
        <mxCell id="KyeC4GDaf3oGziCK4GGg-74" style="edgeStyle=orthogonalEdgeStyle;rounded=0;orthogonalLoop=1;jettySize=auto;html=1;" parent="1" source="KyeC4GDaf3oGziCK4GGg-73" edge="1">
          <mxGeometry relative="1" as="geometry">
            <mxPoint x="445" y="700" as="targetPoint" />
          </mxGeometry>
        </mxCell>
        <mxCell id="KyeC4GDaf3oGziCK4GGg-73" value="data de nascimento" style="ellipse;whiteSpace=wrap;html=1;align=center;" parent="1" vertex="1">
          <mxGeometry x="600" y="670" width="100" height="60" as="geometry" />
        </mxCell>
        <mxCell id="KyeC4GDaf3oGziCK4GGg-76" style="edgeStyle=orthogonalEdgeStyle;rounded=0;orthogonalLoop=1;jettySize=auto;html=1;exitX=0.5;exitY=0;exitDx=0;exitDy=0;" parent="1" source="KyeC4GDaf3oGziCK4GGg-75" target="KyeC4GDaf3oGziCK4GGg-68" edge="1">
          <mxGeometry relative="1" as="geometry">
            <Array as="points">
              <mxPoint x="260" y="790" />
              <mxPoint x="395" y="790" />
            </Array>
          </mxGeometry>
        </mxCell>
        <mxCell id="KyeC4GDaf3oGziCK4GGg-75" value="RG" style="ellipse;whiteSpace=wrap;html=1;align=center;" parent="1" vertex="1">
          <mxGeometry x="210" y="810" width="100" height="40" as="geometry" />
        </mxCell>
        <mxCell id="KyeC4GDaf3oGziCK4GGg-85" value="telefones" style="ellipse;shape=doubleEllipse;margin=3;whiteSpace=wrap;html=1;align=center;" parent="1" vertex="1">
          <mxGeometry x="545" y="760" width="100" height="40" as="geometry" />
        </mxCell>
        <mxCell id="KyeC4GDaf3oGziCK4GGg-87" value="CPF" style="ellipse;whiteSpace=wrap;html=1;align=center;fontStyle=4;" parent="1" vertex="1">
          <mxGeometry x="170" y="750" width="100" height="40" as="geometry" />
        </mxCell>
        <mxCell id="KyeC4GDaf3oGziCK4GGg-90" value="ID" style="ellipse;whiteSpace=wrap;html=1;align=center;fontStyle=4;" parent="1" vertex="1">
          <mxGeometry x="440" y="30" width="100" height="40" as="geometry" />
        </mxCell>
        <mxCell id="KyeC4GDaf3oGziCK4GGg-92" style="edgeStyle=orthogonalEdgeStyle;rounded=0;orthogonalLoop=1;jettySize=auto;html=1;entryX=0.5;entryY=0;entryDx=0;entryDy=0;exitX=1;exitY=0.5;exitDx=0;exitDy=0;" parent="1" source="KyeC4GDaf3oGziCK4GGg-91" target="KyeC4GDaf3oGziCK4GGg-61" edge="1">
          <mxGeometry relative="1" as="geometry" />
        </mxCell>
        <mxCell id="KyeC4GDaf3oGziCK4GGg-91" value="nome" style="ellipse;whiteSpace=wrap;html=1;align=center;" parent="1" vertex="1">
          <mxGeometry x="260" y="30" width="100" height="40" as="geometry" />
        </mxCell>
        <mxCell id="KyeC4GDaf3oGziCK4GGg-94" value="CRM" style="ellipse;whiteSpace=wrap;html=1;align=center;fontStyle=4;" parent="1" vertex="1">
          <mxGeometry x="720" y="170" width="100" height="40" as="geometry" />
        </mxCell>
        <mxCell id="KyeC4GDaf3oGziCK4GGg-127" style="edgeStyle=orthogonalEdgeStyle;rounded=0;orthogonalLoop=1;jettySize=auto;html=1;entryX=0.5;entryY=1;entryDx=0;entryDy=0;" parent="1" source="KyeC4GDaf3oGziCK4GGg-95" target="KyeC4GDaf3oGziCK4GGg-68" edge="1">
          <mxGeometry relative="1" as="geometry">
            <Array as="points">
              <mxPoint x="380" y="760" />
              <mxPoint x="395" y="760" />
            </Array>
          </mxGeometry>
        </mxCell>
        <mxCell id="KyeC4GDaf3oGziCK4GGg-95" value="sexo" style="ellipse;whiteSpace=wrap;html=1;align=center;" parent="1" vertex="1">
          <mxGeometry x="330" y="810" width="100" height="40" as="geometry" />
        </mxCell>
        <mxCell id="KyeC4GDaf3oGziCK4GGg-97" style="edgeStyle=orthogonalEdgeStyle;rounded=0;orthogonalLoop=1;jettySize=auto;html=1;exitX=-0.033;exitY=0.518;exitDx=0;exitDy=0;exitPerimeter=0;entryX=0.5;entryY=1;entryDx=0;entryDy=0;" parent="1" source="KyeC4GDaf3oGziCK4GGg-85" target="KyeC4GDaf3oGziCK4GGg-68" edge="1">
          <mxGeometry relative="1" as="geometry">
            <mxPoint x="986.7" y="1030.72" as="sourcePoint" />
            <mxPoint x="430" y="740" as="targetPoint" />
          </mxGeometry>
        </mxCell>
        <mxCell id="KyeC4GDaf3oGziCK4GGg-99" style="edgeStyle=orthogonalEdgeStyle;rounded=0;orthogonalLoop=1;jettySize=auto;html=1;entryX=0.5;entryY=1;entryDx=0;entryDy=0;" parent="1" source="KyeC4GDaf3oGziCK4GGg-98" target="KyeC4GDaf3oGziCK4GGg-68" edge="1">
          <mxGeometry relative="1" as="geometry">
            <Array as="points">
              <mxPoint x="495" y="800" />
              <mxPoint x="395" y="800" />
            </Array>
          </mxGeometry>
        </mxCell>
        <mxCell id="KyeC4GDaf3oGziCK4GGg-98" value="endereco" style="ellipse;whiteSpace=wrap;html=1;align=center;" parent="1" vertex="1">
          <mxGeometry x="445" y="810" width="100" height="40" as="geometry" />
        </mxCell>
        <mxCell id="KyeC4GDaf3oGziCK4GGg-100" value="Leito" style="whiteSpace=wrap;html=1;align=center;" parent="1" vertex="1">
          <mxGeometry x="70" y="360" width="100" height="40" as="geometry" />
        </mxCell>
        <mxCell id="KyeC4GDaf3oGziCK4GGg-104" style="edgeStyle=orthogonalEdgeStyle;rounded=0;orthogonalLoop=1;jettySize=auto;html=1;" parent="1" source="KyeC4GDaf3oGziCK4GGg-102" target="KyeC4GDaf3oGziCK4GGg-100" edge="1">
          <mxGeometry relative="1" as="geometry" />
        </mxCell>
        <mxCell id="KyeC4GDaf3oGziCK4GGg-102" value="Numero" style="ellipse;whiteSpace=wrap;html=1;align=center;fontStyle=4;" parent="1" vertex="1">
          <mxGeometry x="-80" y="330" width="100" height="40" as="geometry" />
        </mxCell>
        <mxCell id="KyeC4GDaf3oGziCK4GGg-105" style="edgeStyle=orthogonalEdgeStyle;rounded=0;orthogonalLoop=1;jettySize=auto;html=1;entryX=0;entryY=0.5;entryDx=0;entryDy=0;" parent="1" source="KyeC4GDaf3oGziCK4GGg-103" target="KyeC4GDaf3oGziCK4GGg-100" edge="1">
          <mxGeometry relative="1" as="geometry" />
        </mxCell>
        <mxCell id="KyeC4GDaf3oGziCK4GGg-103" value="andar" style="ellipse;whiteSpace=wrap;html=1;align=center;" parent="1" vertex="1">
          <mxGeometry x="-80" y="390" width="100" height="40" as="geometry" />
        </mxCell>
        <mxCell id="KyeC4GDaf3oGziCK4GGg-108" value="exerce" style="shape=rhombus;double=1;perimeter=rhombusPerimeter;whiteSpace=wrap;html=1;align=center;" parent="1" vertex="1">
          <mxGeometry x="340" y="230" width="120" height="60" as="geometry" />
        </mxCell>
        <mxCell id="KyeC4GDaf3oGziCK4GGg-111" value="" style="endArrow=none;html=1;rounded=0;exitX=0.5;exitY=0;exitDx=0;exitDy=0;entryX=0.5;entryY=1;entryDx=0;entryDy=0;" parent="1" source="KyeC4GDaf3oGziCK4GGg-108" target="KyeC4GDaf3oGziCK4GGg-61" edge="1">
          <mxGeometry relative="1" as="geometry">
            <mxPoint x="420" y="230" as="sourcePoint" />
            <mxPoint x="580" y="230" as="targetPoint" />
          </mxGeometry>
        </mxCell>
        <mxCell id="KyeC4GDaf3oGziCK4GGg-112" value="1" style="edgeLabel;html=1;align=center;verticalAlign=middle;resizable=0;points=[];" parent="KyeC4GDaf3oGziCK4GGg-111" vertex="1" connectable="0">
          <mxGeometry x="0.7704" relative="1" as="geometry">
            <mxPoint x="10" as="offset" />
          </mxGeometry>
        </mxCell>
        <mxCell id="KyeC4GDaf3oGziCK4GGg-118" value="1" style="edgeLabel;html=1;align=center;verticalAlign=middle;resizable=0;points=[];" parent="KyeC4GDaf3oGziCK4GGg-111" vertex="1" connectable="0">
          <mxGeometry x="-0.8667" y="-1" relative="1" as="geometry">
            <mxPoint x="9" y="-4.67" as="offset" />
          </mxGeometry>
        </mxCell>
        <mxCell id="KyeC4GDaf3oGziCK4GGg-114" value="" style="endArrow=none;html=1;rounded=0;exitX=0;exitY=0.5;exitDx=0;exitDy=0;entryX=1;entryY=0.5;entryDx=0;entryDy=0;" parent="1" source="KyeC4GDaf3oGziCK4GGg-53" target="KyeC4GDaf3oGziCK4GGg-108" edge="1">
          <mxGeometry relative="1" as="geometry">
            <mxPoint x="500" y="250" as="sourcePoint" />
            <mxPoint x="660" y="250" as="targetPoint" />
          </mxGeometry>
        </mxCell>
        <mxCell id="KyeC4GDaf3oGziCK4GGg-115" value="N" style="resizable=0;html=1;align=right;verticalAlign=bottom;" parent="KyeC4GDaf3oGziCK4GGg-114" connectable="0" vertex="1">
          <mxGeometry x="1" relative="1" as="geometry">
            <mxPoint x="10" as="offset" />
          </mxGeometry>
        </mxCell>
        <mxCell id="KyeC4GDaf3oGziCK4GGg-117" value="0" style="edgeLabel;html=1;align=center;verticalAlign=middle;resizable=0;points=[];" parent="KyeC4GDaf3oGziCK4GGg-114" vertex="1" connectable="0">
          <mxGeometry x="-0.8533" relative="1" as="geometry">
            <mxPoint x="-2.67" y="-10" as="offset" />
          </mxGeometry>
        </mxCell>
        <mxCell id="KyeC4GDaf3oGziCK4GGg-119" value="trata" style="shape=rhombus;double=1;perimeter=rhombusPerimeter;whiteSpace=wrap;html=1;align=center;" parent="1" vertex="1">
          <mxGeometry x="550" y="440" width="120" height="60" as="geometry" />
        </mxCell>
        <mxCell id="KyeC4GDaf3oGziCK4GGg-123" style="edgeStyle=orthogonalEdgeStyle;rounded=0;orthogonalLoop=1;jettySize=auto;html=1;" parent="1" source="KyeC4GDaf3oGziCK4GGg-120" target="KyeC4GDaf3oGziCK4GGg-119" edge="1">
          <mxGeometry relative="1" as="geometry" />
        </mxCell>
        <mxCell id="KyeC4GDaf3oGziCK4GGg-120" value="horario de &lt;br&gt;visita" style="ellipse;whiteSpace=wrap;html=1;align=center;" parent="1" vertex="1">
          <mxGeometry x="720" y="400" width="100" height="60" as="geometry" />
        </mxCell>
        <mxCell id="KyeC4GDaf3oGziCK4GGg-122" style="edgeStyle=orthogonalEdgeStyle;rounded=0;orthogonalLoop=1;jettySize=auto;html=1;entryX=1;entryY=0.5;entryDx=0;entryDy=0;" parent="1" source="KyeC4GDaf3oGziCK4GGg-121" target="KyeC4GDaf3oGziCK4GGg-119" edge="1">
          <mxGeometry relative="1" as="geometry" />
        </mxCell>
        <mxCell id="KyeC4GDaf3oGziCK4GGg-121" value="medico responsavel" style="ellipse;whiteSpace=wrap;html=1;align=center;" parent="1" vertex="1">
          <mxGeometry x="720" y="490" width="100" height="60" as="geometry" />
        </mxCell>
        <mxCell id="KyeC4GDaf3oGziCK4GGg-124" value="" style="endArrow=none;html=1;rounded=0;entryX=0.5;entryY=0;entryDx=0;entryDy=0;exitX=0.5;exitY=1;exitDx=0;exitDy=0;" parent="1" source="KyeC4GDaf3oGziCK4GGg-53" target="KyeC4GDaf3oGziCK4GGg-119" edge="1">
          <mxGeometry relative="1" as="geometry">
            <mxPoint x="440" y="420" as="sourcePoint" />
            <mxPoint x="600" y="420" as="targetPoint" />
          </mxGeometry>
        </mxCell>
        <mxCell id="KyeC4GDaf3oGziCK4GGg-125" value="1" style="resizable=0;html=1;align=right;verticalAlign=bottom;" parent="KyeC4GDaf3oGziCK4GGg-124" connectable="0" vertex="1">
          <mxGeometry x="1" relative="1" as="geometry">
            <mxPoint x="20" as="offset" />
          </mxGeometry>
        </mxCell>
        <mxCell id="KyeC4GDaf3oGziCK4GGg-126" value="N" style="edgeLabel;html=1;align=center;verticalAlign=middle;resizable=0;points=[];" parent="KyeC4GDaf3oGziCK4GGg-124" vertex="1" connectable="0">
          <mxGeometry x="-0.7583" y="-2" relative="1" as="geometry">
            <mxPoint x="12" y="-9.33" as="offset" />
          </mxGeometry>
        </mxCell>
        <mxCell id="KyeC4GDaf3oGziCK4GGg-129" value="" style="endArrow=none;html=1;rounded=0;exitX=0.5;exitY=0;exitDx=0;exitDy=0;entryX=0.5;entryY=1;entryDx=0;entryDy=0;" parent="1" source="KyeC4GDaf3oGziCK4GGg-68" target="KyeC4GDaf3oGziCK4GGg-119" edge="1">
          <mxGeometry relative="1" as="geometry">
            <mxPoint x="360" y="640" as="sourcePoint" />
            <mxPoint x="520" y="640" as="targetPoint" />
            <Array as="points">
              <mxPoint x="460" y="630" />
              <mxPoint x="610" y="630" />
            </Array>
          </mxGeometry>
        </mxCell>
        <mxCell id="KyeC4GDaf3oGziCK4GGg-130" value="1" style="resizable=0;html=1;align=right;verticalAlign=bottom;" parent="KyeC4GDaf3oGziCK4GGg-129" connectable="0" vertex="1">
          <mxGeometry x="1" relative="1" as="geometry">
            <mxPoint x="9.869999999999997" y="30.11" as="offset" />
          </mxGeometry>
        </mxCell>
        <mxCell id="KyeC4GDaf3oGziCK4GGg-131" value="N" style="edgeLabel;html=1;align=center;verticalAlign=middle;resizable=0;points=[];" parent="KyeC4GDaf3oGziCK4GGg-129" vertex="1" connectable="0">
          <mxGeometry x="-0.815" relative="1" as="geometry">
            <mxPoint x="15.279999999999998" as="offset" />
          </mxGeometry>
        </mxCell>
        <mxCell id="KyeC4GDaf3oGziCK4GGg-132" value="ocupa" style="shape=rhombus;double=1;perimeter=rhombusPerimeter;whiteSpace=wrap;html=1;align=center;" parent="1" vertex="1">
          <mxGeometry x="60" y="480" width="120" height="60" as="geometry" />
        </mxCell>
        <mxCell id="KyeC4GDaf3oGziCK4GGg-133" value="" style="endArrow=none;html=1;rounded=0;exitX=0.5;exitY=0;exitDx=0;exitDy=0;entryX=0.5;entryY=1;entryDx=0;entryDy=0;" parent="1" source="KyeC4GDaf3oGziCK4GGg-132" target="KyeC4GDaf3oGziCK4GGg-100" edge="1">
          <mxGeometry relative="1" as="geometry">
            <mxPoint x="210" y="500" as="sourcePoint" />
            <mxPoint x="210" y="420" as="targetPoint" />
          </mxGeometry>
        </mxCell>
        <mxCell id="KyeC4GDaf3oGziCK4GGg-134" value="1" style="edgeLabel;html=1;align=center;verticalAlign=middle;resizable=0;points=[];" parent="KyeC4GDaf3oGziCK4GGg-133" vertex="1" connectable="0">
          <mxGeometry x="0.7704" relative="1" as="geometry">
            <mxPoint x="10" as="offset" />
          </mxGeometry>
        </mxCell>
        <mxCell id="KyeC4GDaf3oGziCK4GGg-135" value="1" style="edgeLabel;html=1;align=center;verticalAlign=middle;resizable=0;points=[];" parent="KyeC4GDaf3oGziCK4GGg-133" vertex="1" connectable="0">
          <mxGeometry x="-0.8667" y="-1" relative="1" as="geometry">
            <mxPoint x="9" y="-4.67" as="offset" />
          </mxGeometry>
        </mxCell>
        <mxCell id="KyeC4GDaf3oGziCK4GGg-136" value="" style="endArrow=none;html=1;rounded=0;exitX=0.5;exitY=0;exitDx=0;exitDy=0;entryX=0.5;entryY=1;entryDx=0;entryDy=0;" parent="1" source="KyeC4GDaf3oGziCK4GGg-68" target="KyeC4GDaf3oGziCK4GGg-132" edge="1">
          <mxGeometry relative="1" as="geometry">
            <mxPoint x="380" y="660" as="sourcePoint" />
            <mxPoint x="350" y="560" as="targetPoint" />
            <Array as="points">
              <mxPoint x="330" y="600" />
              <mxPoint x="120" y="600" />
            </Array>
          </mxGeometry>
        </mxCell>
        <mxCell id="KyeC4GDaf3oGziCK4GGg-137" value="1" style="edgeLabel;html=1;align=center;verticalAlign=middle;resizable=0;points=[];" parent="KyeC4GDaf3oGziCK4GGg-136" vertex="1" connectable="0">
          <mxGeometry x="0.7704" relative="1" as="geometry">
            <mxPoint x="-18" y="-23" as="offset" />
          </mxGeometry>
        </mxCell>
        <mxCell id="KyeC4GDaf3oGziCK4GGg-138" value="0" style="edgeLabel;html=1;align=center;verticalAlign=middle;resizable=0;points=[];" parent="KyeC4GDaf3oGziCK4GGg-136" vertex="1" connectable="0">
          <mxGeometry x="-0.8667" y="-1" relative="1" as="geometry">
            <mxPoint x="-21" y="-5" as="offset" />
          </mxGeometry>
        </mxCell>
        <mxCell id="tnxX8dF5TO3ifdZOeQlp-3" value="Medicamento" style="whiteSpace=wrap;html=1;align=center;" vertex="1" parent="1">
          <mxGeometry x="250" y="450" width="100" height="40" as="geometry" />
        </mxCell>
        <mxCell id="tnxX8dF5TO3ifdZOeQlp-4" value="&lt;u&gt;Nome&lt;/u&gt;" style="ellipse;whiteSpace=wrap;html=1;align=center;" vertex="1" parent="1">
          <mxGeometry x="250" y="390" width="100" height="40" as="geometry" />
        </mxCell>
        <mxCell id="tnxX8dF5TO3ifdZOeQlp-6" value="prescreve" style="shape=rhombus;double=1;perimeter=rhombusPerimeter;whiteSpace=wrap;html=1;align=center;" vertex="1" parent="1">
          <mxGeometry x="410" y="440" width="120" height="60" as="geometry" />
        </mxCell>
        <mxCell id="tnxX8dF5TO3ifdZOeQlp-12" value="" style="endArrow=none;html=1;rounded=0;exitX=0.5;exitY=0;exitDx=0;exitDy=0;entryX=0.5;entryY=1;entryDx=0;entryDy=0;" edge="1" parent="1" source="tnxX8dF5TO3ifdZOeQlp-3" target="tnxX8dF5TO3ifdZOeQlp-4">
          <mxGeometry relative="1" as="geometry">
            <mxPoint x="420" y="350" as="sourcePoint" />
            <mxPoint x="580" y="350" as="targetPoint" />
          </mxGeometry>
        </mxCell>
        <mxCell id="tnxX8dF5TO3ifdZOeQlp-13" value="" style="endArrow=none;html=1;rounded=0;exitX=0.5;exitY=0;exitDx=0;exitDy=0;" edge="1" parent="1" source="tnxX8dF5TO3ifdZOeQlp-6">
          <mxGeometry relative="1" as="geometry">
            <mxPoint x="310" y="430" as="sourcePoint" />
            <mxPoint x="610" y="280" as="targetPoint" />
            <Array as="points">
              <mxPoint x="470" y="340" />
              <mxPoint x="560" y="340" />
            </Array>
          </mxGeometry>
        </mxCell>
        <mxCell id="tnxX8dF5TO3ifdZOeQlp-14" value="" style="endArrow=none;html=1;rounded=0;exitX=1;exitY=0.5;exitDx=0;exitDy=0;entryX=0;entryY=0.5;entryDx=0;entryDy=0;" edge="1" parent="1" source="tnxX8dF5TO3ifdZOeQlp-3" target="tnxX8dF5TO3ifdZOeQlp-6">
          <mxGeometry relative="1" as="geometry">
            <mxPoint x="320" y="440" as="sourcePoint" />
            <mxPoint x="320" y="400" as="targetPoint" />
          </mxGeometry>
        </mxCell>
        <mxCell id="tnxX8dF5TO3ifdZOeQlp-15" value="" style="endArrow=none;html=1;rounded=0;exitX=0.5;exitY=0;exitDx=0;exitDy=0;entryX=0.5;entryY=1;entryDx=0;entryDy=0;" edge="1" parent="1" source="KyeC4GDaf3oGziCK4GGg-68" target="tnxX8dF5TO3ifdZOeQlp-6">
          <mxGeometry relative="1" as="geometry">
            <mxPoint x="330" y="450" as="sourcePoint" />
            <mxPoint x="330" y="410" as="targetPoint" />
            <Array as="points">
              <mxPoint x="395" y="600" />
              <mxPoint x="470" y="600" />
            </Array>
          </mxGeometry>
        </mxCell>
        <mxCell id="tnxX8dF5TO3ifdZOeQlp-17" value="1" style="resizable=0;html=1;align=right;verticalAlign=bottom;" connectable="0" vertex="1" parent="1">
          <mxGeometry x="460" y="440" as="geometry" />
        </mxCell>
        <mxCell id="tnxX8dF5TO3ifdZOeQlp-19" value="1" style="resizable=0;html=1;align=right;verticalAlign=bottom;" connectable="0" vertex="1" parent="1">
          <mxGeometry x="480" y="520" as="geometry" />
        </mxCell>
        <mxCell id="tnxX8dF5TO3ifdZOeQlp-20" value="N" style="edgeLabel;html=1;align=center;verticalAlign=middle;resizable=0;points=[];" vertex="1" connectable="0" parent="1">
          <mxGeometry x="630" y="299.98034482758635" as="geometry">
            <mxPoint x="-223" y="161" as="offset" />
          </mxGeometry>
        </mxCell>
        <mxCell id="tnxX8dF5TO3ifdZOeQlp-22" value="formado em" style="shape=rhombus;double=1;perimeter=rhombusPerimeter;whiteSpace=wrap;html=1;align=center;" vertex="1" parent="1">
          <mxGeometry x="550" y="100" width="120" height="60" as="geometry" />
        </mxCell>
        <mxCell id="tnxX8dF5TO3ifdZOeQlp-24" value="" style="endArrow=none;html=1;rounded=0;exitX=0;exitY=0.5;exitDx=0;exitDy=0;entryX=1;entryY=0.5;entryDx=0;entryDy=0;" edge="1" parent="1" source="tnxX8dF5TO3ifdZOeQlp-22" target="KyeC4GDaf3oGziCK4GGg-61">
          <mxGeometry relative="1" as="geometry">
            <mxPoint x="410" y="240" as="sourcePoint" />
            <mxPoint x="410" y="160" as="targetPoint" />
          </mxGeometry>
        </mxCell>
        <mxCell id="tnxX8dF5TO3ifdZOeQlp-27" value="" style="endArrow=none;html=1;rounded=0;exitX=0.5;exitY=0;exitDx=0;exitDy=0;entryX=0.5;entryY=1;entryDx=0;entryDy=0;" edge="1" parent="1" source="KyeC4GDaf3oGziCK4GGg-53" target="tnxX8dF5TO3ifdZOeQlp-22">
          <mxGeometry relative="1" as="geometry">
            <mxPoint x="420" y="250" as="sourcePoint" />
            <mxPoint x="420" y="170" as="targetPoint" />
          </mxGeometry>
        </mxCell>
      </root>
    </mxGraphModel>
  </diagram>
</mxfile>
